<?xml version="1.0" encoding="UTF-8"?>
<svg version="1.1" xmlns="http://www.w3.org/2000/svg" width="2000" height="626">
<path d="M0 0 C2.83066196 2.68573575 5.05091342 5.35818262 7.16015625 8.63671875 C7.77407227 9.58401855 8.38798828 10.53131836 9.02050781 11.50732422 C9.69436523 12.55678223 10.36822266 13.60624023 11.0625 14.6875 C12.19223788 16.43311823 13.32408065 18.17735974 14.45608521 19.92150879 C15.28379446 21.19681932 16.11098675 22.4724655 16.93771362 23.74841309 C21.93481666 31.45579546 26.99177857 39.12367997 32.0475769 46.79263306 C33.77254086 49.40919171 35.49682823 52.02619508 37.22094727 54.64331055 C40.81328029 60.09599162 44.40657808 65.54803649 48 71 C49.205082 72.82844797 50.41016013 74.65689848 51.61523438 76.48535156 C56.46221306 83.83956162 61.30933263 91.19367879 66.15673828 98.54760742 C72.06683022 107.51388904 77.97608303 116.48072159 83.8828125 125.44921875 C84.44330795 126.30020645 85.00380341 127.15119415 85.58128357 128.02796936 C88.36092819 132.2485433 91.1397923 136.46962794 93.91723633 140.69165039 C99.18218454 148.69358919 104.45407245 156.69073934 109.74639893 164.67460632 C112.28421811 168.5038527 114.8187235 172.33528673 117.35296631 176.16690063 C118.56944374 178.00408226 119.78756642 179.84017562 121.00738525 181.67514038 C122.69001165 184.20652136 124.36708082 186.74149853 126.04296875 189.27734375 C126.5477626 190.03356018 127.05255646 190.78977661 127.57264709 191.56890869 C131 196.77226702 131 196.77226702 131 199 C135.85190677 196.35523513 139.90668944 192.90461635 144.125 189.375 C145.65093454 188.10794389 147.17697615 186.84101672 148.703125 185.57421875 C149.44111328 184.95981934 150.17910156 184.34541992 150.93945312 183.71240234 C154.4184217 180.82123107 157.92234518 177.96125934 161.43359375 175.109375 C163.29700108 173.57780733 165.14095141 172.02247001 166.97265625 170.453125 C167.95105469 169.62296875 168.92945313 168.7928125 169.9375 167.9375 C171.25041016 166.80634766 171.25041016 166.80634766 172.58984375 165.65234375 C175 164 175 164 179 164 C180.9841318 166.39877235 182.67267229 168.72308361 184.375 171.3125 C185.44590543 172.88548574 186.51890148 174.45704976 187.59375 176.02734375 C188.15191406 176.84831543 188.71007812 177.66928711 189.28515625 178.51513672 C192.05906257 182.53461544 194.96437482 186.45395054 197.875 190.375 C198.75055542 191.55884277 198.75055542 191.55884277 199.64379883 192.76660156 C200.83299382 194.37435279 202.0228554 195.98161118 203.21337891 197.58837891 C211.24076505 208.42392418 219.22756626 219.28611417 227.10571289 230.23071289 C231.0339888 235.68106937 235.00712036 241.09683174 239 246.5 C243.53751011 252.64016269 248.03966576 258.80354661 252.5 265 C259.25983749 274.38780773 266.12417344 283.69696495 273 293 C280.42121495 303.04094886 287.81171806 313.10066404 295.10791016 323.23291016 C301.33662403 331.87249604 307.66954014 340.4348494 314 349 C321.42059673 359.0401124 328.81196039 369.09797508 336.10571289 379.23071289 C340.0339888 384.68106937 344.00712036 390.09683174 348 395.5 C352.53751011 401.64016269 357.03966576 407.80354661 361.5 414 C368.25983749 423.38780773 375.12417344 432.69696495 382 442 C389.42059673 452.0401124 396.81196039 462.09797508 404.10571289 472.23071289 C408.0339888 477.68106937 412.00712036 483.09683174 416 488.5 C420.53751011 494.64016269 425.03966576 500.80354661 429.5 507 C435.67655641 515.57776893 441.93907948 524.09029361 448.22070312 532.59130859 C451.79521318 537.43023782 455.36507587 542.27260629 458.92993164 547.11865234 C461.71676749 550.90665391 464.51075865 554.68875051 467.32421875 558.45703125 C468.0982605 559.49875488 468.0982605 559.49875488 468.88793945 560.56152344 C469.85530544 561.86320323 470.82631124 563.16218859 471.80151367 564.45800781 C475 568.77453565 475 568.77453565 475 571 C143.35 571 -188.3 571 -530 571 C-528.50855577 567.27138943 -527.55189501 565.11003566 -525.26953125 562.05859375 C-524.72167969 561.32060547 -524.17382812 560.58261719 -523.609375 559.82226562 C-522.71992187 558.64180664 -522.71992187 558.64180664 -521.8125 557.4375 C-521.19246094 556.60541016 -520.57242188 555.77332031 -519.93359375 554.91601562 C-517.9616289 552.27286996 -515.98165422 549.63588689 -514 547 C-512.74333289 545.32433625 -511.4868198 543.64855698 -510.23046875 541.97265625 C-508.35991904 539.47850836 -506.48865654 536.98491114 -504.61523438 534.49291992 C-499.72168131 527.97980364 -494.88269727 521.42792992 -490.05859375 514.86328125 C-485.91947307 509.23520087 -481.73901937 503.63982598 -477.53833008 498.05761719 C-473.65926954 492.89580363 -469.82450525 487.7023292 -466 482.5 C-461.21561002 475.99197607 -456.39587442 469.51269943 -451.5390625 463.05859375 C-447.6597599 457.89645299 -443.82474635 452.70265715 -440 447.5 C-435.69542837 441.64465475 -431.36963569 435.80695822 -427 430 C-422.67649884 424.25237992 -418.38903772 418.4793765 -414.125 412.6875 C-413.24497314 411.49229736 -413.24497314 411.49229736 -412.34716797 410.27294922 C-409.41474278 406.28789972 -406.48647219 402.29984916 -403.5625 398.30859375 C-396.70164781 388.95519298 -389.73320964 379.6942387 -382.68017578 370.48486328 C-378.63485215 365.18846947 -374.69593368 359.83897706 -370.86621094 354.38549805 C-366.37832487 348.03943381 -361.61103825 341.90591151 -356.8828125 335.73828125 C-353.16903684 330.8823444 -349.5130117 326.00301322 -346 321 C-341.15393463 314.09853449 -336.01282534 307.43001386 -330.8828125 300.73828125 C-327.16903684 295.8823444 -323.5130117 291.00301322 -320 286 C-315.15393463 279.09853449 -310.01282534 272.43001386 -304.8828125 265.73828125 C-301.16903684 260.8823444 -297.5130117 256.00301322 -294 251 C-289.15393463 244.09853449 -284.01282534 237.43001386 -278.8828125 230.73828125 C-275.16904174 225.8823508 -271.51287001 221.00310956 -268 216 C-262.97216054 208.86287857 -257.66953184 201.9432833 -252.35546875 195.01757812 C-251.69160156 194.15197266 -251.02773438 193.28636719 -250.34375 192.39453125 C-249.74755859 191.61956299 -249.15136719 190.84459473 -248.53710938 190.04614258 C-247.30335199 188.40381083 -246.13942102 186.70913153 -245 185 C-241.85444962 185.610571 -239.81021471 186.6303849 -237.234375 188.51953125 C-236.51773682 189.04087646 -235.80109863 189.56222168 -235.06274414 190.09936523 C-234.29953857 190.66469971 -233.53633301 191.23003418 -232.75 191.8125 C-231.95005615 192.39781494 -231.1501123 192.98312988 -230.32592773 193.58618164 C-223.88703 198.30956714 -217.49950629 203.10167039 -211.12109375 207.90625 C-199.71570663 216.48579187 -188.18453211 224.89506688 -176.59204102 233.21948242 C-170.66696044 237.48603983 -164.82561071 241.85795035 -159.03637695 246.30712891 C-156.3734066 248.33285756 -154.19828349 249.9339055 -151 251 C-150.51345947 250.17725586 -150.02691895 249.35451172 -149.52563477 248.50683594 C-140.92086577 233.96149159 -132.29706283 219.4300766 -123.5 205 C-117.42919027 195.04122358 -111.44055961 185.03700047 -105.5 175 C-99.55946235 164.96303663 -93.57151663 154.95829151 -87.5 145 C-80.08405582 132.83293027 -72.79650778 120.59245119 -65.53408813 108.33325195 C-64.95067154 107.34844849 -64.95067154 107.34844849 -64.35546875 106.34375 C-63.78184097 105.37538208 -63.78184097 105.37538208 -63.19662476 104.38745117 C-59.69669184 98.48203498 -56.16465245 92.59622771 -52.62451172 86.71484375 C-49.61346959 81.70572399 -46.62318291 76.6846708 -43.64453125 71.65625 C-43.2552243 70.9990799 -42.86591736 70.34190979 -42.46481323 69.66482544 C-42.06843658 68.99571136 -41.67205994 68.32659729 -41.26367188 67.63720703 C-32.23214618 52.39187968 -23.10837032 37.20688736 -13.87890625 22.08056641 C-12.09340814 19.15314759 -10.31173594 16.22343793 -8.53125 13.29296875 C-7.52096998 11.63272934 -6.51056357 9.97256683 -5.5 8.3125 C-5.04882812 7.5695166 -4.59765625 6.8265332 -4.1328125 6.06103516 C-1.1149338 1.1149338 -1.1149338 1.1149338 0 0 Z M-1 42 C-1.79606345 43.18581087 -2.54082737 44.40605518 -3.265625 45.63671875 C-3.97223267 46.82769165 -3.97223267 46.82769165 -4.69311523 48.04272461 C-5.20688721 48.91550049 -5.72065918 49.78827637 -6.25 50.6875 C-10.58193699 57.97827846 -14.96329303 65.23309564 -19.4375 72.4375 C-19.97882568 73.30955078 -20.52015137 74.18160156 -21.07788086 75.08007812 C-22.17554023 76.84725607 -23.27360236 78.61418392 -24.37207031 80.38085938 C-27.02358611 84.64682541 -29.66836536 88.91695623 -32.3125 93.1875 C-32.84093506 94.04077881 -33.36937012 94.89405762 -33.91381836 95.77319336 C-38.97761604 103.95456849 -44.01779698 112.1504263 -49.05786133 120.34643555 C-53.71355234 127.91535305 -58.3851165 135.47424034 -63.06640625 143.02734375 C-67.39175613 150.00954245 -71.69766393 157.00360149 -76 164 C-81.34071127 172.68498968 -86.69524619 181.36115782 -92.06640625 190.02734375 C-96.3917562 197.00954256 -100.69763623 204.00361844 -105 211 C-111.43653827 221.46617116 -117.89347426 231.91946598 -124.36621094 242.36328125 C-127.34996353 247.178662 -130.3310262 251.99570813 -133.3125 256.8125 C-134.41274971 258.58985038 -135.51300908 260.36719478 -136.61328125 262.14453125 C-137.07516846 262.89065674 -137.53705566 263.63678223 -138.01293945 264.40551758 C-138.50153442 265.19478638 -138.50153442 265.19478638 -139 266 C-135.56517162 270.13431111 -132.10723561 274.00287045 -128.0625 277.5625 C-126.78439453 278.69171875 -126.78439453 278.69171875 -125.48046875 279.84375 C-122.33383638 282.57909026 -119.18021516 285.30373062 -116 288 C-112.32043709 286.43767979 -109.83484207 284.16415918 -106.9375 281.4375 C-103.24636541 278.0046517 -99.49589741 274.72061908 -95.5625 271.5625 C-91.02683557 267.90428985 -86.7429883 264.05257035 -82.48071289 260.08618164 C-79.24806025 257.09573 -75.93303234 254.26220993 -72.5 251.5 C-67.40076422 247.39699697 -62.60662632 243.04083547 -57.82421875 238.578125 C-49.52272727 231 -49.52272727 231 -47 231 C-45.68 235.95 -44.36 240.9 -43 246 C-39.09251121 246 -38.21215987 244.8123834 -35.25 242.3125 C-34.280625 241.4978125 -33.31125 240.683125 -32.3125 239.84375 C-31.20702693 238.8973572 -30.10294468 237.94933823 -29 237 C-28.38382813 236.47019531 -27.76765625 235.94039062 -27.1328125 235.39453125 C-23.93952592 232.64368799 -20.75481846 229.88326557 -17.578125 227.11328125 C-16.98708984 226.60490723 -16.39605469 226.0965332 -15.78710938 225.57275391 C-14.55493253 224.48837095 -13.34895052 223.37373755 -12.16601562 222.23583984 C-11.27172852 221.39786865 -11.27172852 221.39786865 -10.359375 220.54296875 C-9.56998535 219.77569458 -9.56998535 219.77569458 -8.76464844 218.99291992 C-7 218 -7 218 -4.5690918 218.19238281 C-1.96870578 219.00983762 0.11575542 220.00190693 2.46484375 221.37890625 C3.76518555 222.13010742 3.76518555 222.13010742 5.09179688 222.89648438 C6.03087891 223.44626953 6.96996094 223.99605469 7.9375 224.5625 C17.19941385 229.89693131 26.55180252 235.00610929 36 240 C44.9462698 244.73482678 53.83525424 249.54056661 62.625 254.5625 C70.82665354 259.24419404 79.08460382 263.80932603 87.40081787 268.28366089 C88.66823068 268.96576376 89.93488319 269.64928139 91.20074463 270.33425903 C92.96088217 271.28583869 94.72450481 272.23096345 96.48828125 273.17578125 C97.50446533 273.72145752 98.52064941 274.26713379 99.56762695 274.8293457 C101.85045406 276.14455626 101.85045406 276.14455626 104 276 C102.71520302 272.55630419 101.22425047 269.55986047 99.234375 266.47265625 C98.68136719 265.60962891 98.12835937 264.74660156 97.55859375 263.85742188 C96.96175781 262.93509766 96.36492187 262.01277344 95.75 261.0625 C94.47384681 259.07429033 93.1978083 257.08600704 91.921875 255.09765625 C91.26896484 254.0833252 90.61605469 253.06899414 89.94335938 252.02392578 C86.94584242 247.35969902 83.973444 242.67959437 81 238 C79.83347046 236.16657941 78.66680336 234.33324634 77.5 232.5 C70.5 221.5 70.5 221.5 68.74829102 218.74707031 C67.58761613 216.92331472 66.42664853 215.09974539 65.26538086 213.27636719 C62.25454882 208.5480202 59.24966558 203.81603838 56.25390625 199.078125 C55.63580078 198.10230469 55.01769531 197.12648437 54.38085938 196.12109375 C53.21227148 194.27595496 52.0454543 192.42969288 50.88085938 190.58203125 C49.27123771 188.04296418 47.64166651 185.51845462 46 183 C45.40219727 182.07316406 44.80439453 181.14632812 44.18847656 180.19140625 C43.58616211 179.28777344 42.98384766 178.38414062 42.36328125 177.453125 C41.82356689 176.63489258 41.28385254 175.81666016 40.7277832 174.97363281 C37.50284989 171.2898175 33.65337752 171.34164037 29 171 C27.59542245 170.82774691 26.19182024 170.6474313 24.7890625 170.4609375 C18.50776568 169.64275694 12.34800628 168.94708118 6 169 C5.97515313 168.40623125 5.95030626 167.8124625 5.92470646 167.20070076 C5.3184685 152.71812846 4.70902248 138.23569358 4.09605503 123.75340462 C3.7996989 116.74973026 3.50440791 109.7460141 3.21166992 102.7421875 C2.92900223 95.97936814 2.64330609 89.21668206 2.35578728 82.45406723 C2.24674725 79.87782873 2.13871113 77.30154752 2.03170967 74.72522354 C1.88132466 71.10852594 1.72732616 67.49199853 1.57250977 63.87548828 C1.50777214 62.28836281 1.50777214 62.28836281 1.44172668 60.66917419 C1.16962422 54.41734567 0.69786443 48.21893507 0 42 C-0.33 42 -0.66 42 -1 42 Z M167.3671875 206.0390625 C166.29549316 207.00054199 166.29549316 207.00054199 165.20214844 207.98144531 C161.81640265 211.0849205 158.46133245 214.2185116 155.125 217.375 C149.1547384 223.00001867 143.13687957 228.5564698 137 234 C138.45214303 238.75841483 140.42328654 243.12487517 142.65725708 247.55502319 C143.02648564 248.29518917 143.3957142 249.03535514 143.77613151 249.79795039 C145.00988668 252.26874556 146.24932482 254.73664448 147.48876953 257.20458984 C148.37609649 258.97867944 149.26307088 260.75294542 150.14971924 262.52737427 C152.55503565 267.33858075 154.96527619 272.14730521 157.37640619 276.95560026 C159.89636691 281.98301666 162.41179485 287.0126999 164.92770386 292.04214478 C169.69142119 301.56336401 174.45921336 311.08253664 179.22847164 320.60098135 C184.65841565 331.43851237 190.08381501 342.27831615 195.50883317 353.11831355 C206.66749922 375.41474224 217.83187154 397.70830964 229 420 C230.41534714 415.75395858 228.75451426 412.78865565 227.265625 408.76171875 C226.96106888 407.91492554 226.65651276 407.06813232 226.34272766 406.19567871 C225.67422638 404.34013753 225.00152448 402.4861058 224.32522583 400.63339233 C222.85199995 396.59706369 221.39883009 392.55360078 219.94410706 388.51057434 C219.16736139 386.35263174 218.38953466 384.19507801 217.61070251 382.03788757 C213.59453525 370.9077845 209.66957489 359.7461977 205.75305176 348.58071899 C203.75638729 342.8899796 201.75504979 337.20088432 199.75390625 331.51171875 C199.35867767 330.38795334 198.9634491 329.26418793 198.5562439 328.10636902 C183.03369876 283.96122622 183.03369876 283.96122622 167 240 C172.45647488 244.70911197 177.76966365 249.5416263 183 254.5 C184.49725963 255.91420671 185.99465879 257.32826572 187.4921875 258.7421875 C188.24338867 259.45213867 188.99458984 260.16208984 189.76855469 260.89355469 C193.21326955 264.14530522 196.66837069 267.38592376 200.125 270.625 C201.11101196 271.54913696 201.11101196 271.54913696 202.11694336 272.49194336 C209.06848532 279.0047833 216.03354962 285.50311553 223 292 C225.47938564 294.31226538 227.95854013 296.62477817 230.4375 298.9375 C231.04940186 299.50815186 231.66130371 300.07880371 232.29174805 300.66674805 C235.59519325 303.7491866 238.89292197 306.83751933 242.18359375 309.93359375 C249.04152059 316.38400102 255.89395103 322.8216852 263 329 C263 325.53524401 262.45779868 324.90713061 260.4296875 322.21875 C259.87015381 321.46907959 259.31062012 320.71940918 258.73413086 319.94702148 C258.12061768 319.13950439 257.50710449 318.3319873 256.875 317.5 C255.58187347 315.7722535 254.28890917 314.04438556 252.99609375 312.31640625 C252.33077637 311.43227051 251.66545898 310.54813477 250.97998047 309.63720703 C247.94071576 305.58910131 244.93828585 301.51416704 241.9375 297.4375 C241.3585498 296.65246094 240.77959961 295.86742187 240.18310547 295.05859375 C235.71275431 288.98999535 231.29655741 282.88358853 226.89208984 276.76708984 C221.24281917 268.93122514 215.50687108 261.16007146 209.76611328 253.39111328 C206.26122523 248.6458999 202.76391854 243.89509547 199.265625 239.14501953 C196.26532825 235.07186386 193.26209416 231.00092586 190.25390625 226.93359375 C189.02335779 225.26828806 187.7928876 223.60292454 186.5625 221.9375 C185.68223145 220.7477356 185.68223145 220.7477356 184.78417969 219.53393555 C181.14768624 214.60443187 177.61269462 209.63054572 174.234375 204.51953125 C173.82703125 204.01808594 173.4196875 203.51664063 173 203 C170.20237217 203 169.42956511 204.18379415 167.3671875 206.0390625 Z M-232 222 C-230.71406285 225.39333079 -229.24583583 228.48492449 -227.41015625 231.61328125 C-226.88317139 232.5146582 -226.35618652 233.41603516 -225.81323242 234.34472656 C-225.23549072 235.3240918 -224.65774902 236.30345703 -224.0625 237.3125 C-223.45059814 238.3550293 -222.83869629 239.39755859 -222.20825195 240.47167969 C-220.50698276 243.36592878 -218.80196685 246.25788867 -217.09411621 249.14825439 C-215.98039083 251.0331877 -214.86760341 252.91867262 -213.75488281 254.80419922 C-204.62502314 270.2680652 -195.43029591 285.69011842 -186.0456543 301.00097656 C-184.73721751 303.14250853 -183.45306542 305.29902393 -182.19067383 307.46801758 C-180.65545236 310.04941911 -178.95005038 312.37928658 -177.09643555 314.7409668 C-166.02562717 329.76406725 -167.50750456 346.87765107 -167.78112793 364.68109131 C-167.83391852 368.89868985 -167.8231576 373.11612787 -167.81835938 377.33398438 C-167.81806296 385.55708797 -167.8862165 393.77768561 -168 402 C-158.93340635 396.778752 -158.93340635 396.778752 -150.078125 391.2109375 C-149.11519531 390.57929688 -148.15226562 389.94765625 -147.16015625 389.296875 C-146.19980469 388.66265625 -145.23945313 388.0284375 -144.25 387.375 C-132.98873688 379.96666574 -132.98873688 379.96666574 -128.484375 377.1015625 C-127.87819336 376.71564941 -127.27201172 376.32973633 -126.64746094 375.93212891 C-125 375 -125 375 -122 374 C-121.59056152 374.86890869 -121.59056152 374.86890869 -121.17285156 375.75537109 C-120.01098474 377.97897717 -118.7220358 379.89621948 -117.234375 381.9140625 C-116.68120605 382.66582764 -116.12803711 383.41759277 -115.55810547 384.19213867 C-114.96143066 384.99498291 -114.36475586 385.79782715 -113.75 386.625 C-113.12883301 387.46458252 -112.50766602 388.30416504 -111.86767578 389.16918945 C-107.03949396 395.66698063 -102.09804093 402.0707532 -97.10791016 408.44458008 C-92.89749175 413.8266494 -88.77135349 419.26472533 -84.68579102 424.74194336 C-80.43187217 430.43982079 -76.12676004 436.09771001 -71.8125 441.75 C-66.99891409 448.05755383 -62.20607064 454.37810813 -57.45703125 460.734375 C-54.06208866 465.26096512 -50.61998882 469.75187053 -47.1875 474.25 C-42.20904201 480.77662635 -37.24071274 487.31032266 -32.3125 493.875 C-31.61000122 494.80940918 -31.61000122 494.80940918 -30.89331055 495.76269531 C-28.62367131 498.79218285 -26.40236344 501.84482598 -24.23046875 504.9453125 C-23.49441406 505.95335937 -22.75835938 506.96140625 -22 508 C-21.67 508 -21.34 508 -21 508 C-21 471.04 -21 434.08 -21 396 C-14.4 396.99 -7.8 397.98 -1 399 C3.45819228 399.58685846 7.91046554 400.15971589 12.375 400.6875 C13.9528125 400.88182617 13.9528125 400.88182617 15.5625 401.08007812 C20.40043874 401.65879358 25.11692849 402.1761933 30 402 C26.45886492 398.36739649 22.76760593 395.00535717 18.875 391.75 C18.3073291 391.27256348 17.7396582 390.79512695 17.15478516 390.30322266 C11.81073811 385.81875983 6.41242417 381.40157437 1 377 C-2.66995043 374.00400651 -6.33627603 371.00360329 -10 368 C-10.63744141 367.47744629 -11.27488281 366.95489258 -11.93164062 366.41650391 C-19.30721494 360.36639011 -26.67187377 354.30700249 -33.9375 348.125 C-38.28134581 344.43003016 -42.68511905 340.82597464 -47.15234375 337.28125 C-57.27558585 329.17154714 -67.23978799 320.86389602 -77.0703125 312.40234375 C-78.52050781 311.21318359 -78.52050781 311.21318359 -80 310 C-80.51062988 309.49380127 -81.02125977 308.98760254 -81.54736328 308.46606445 C-83.3504721 306.85251868 -84.72003255 305.8298066 -87 305 C-90.79655346 305.45872808 -94.11296665 306.84423396 -97.625 308.3125 C-99.46548486 309.05252829 -101.31174046 309.77840138 -103.1640625 310.48828125 C-103.97311035 310.82384033 -104.7821582 311.15939941 -105.61572266 311.50512695 C-108.76484742 312.15874931 -110.17514336 311.47850521 -113 310 C-114.50908959 308.98632709 -115.97990482 307.91404819 -117.4140625 306.796875 C-118.24744141 306.15363281 -119.08082031 305.51039063 -119.93945312 304.84765625 C-120.82568359 304.15542969 -121.71191406 303.46320313 -122.625 302.75 C-124.52244277 301.28516892 -126.42090037 299.82165155 -128.3203125 298.359375 C-129.27454102 297.62396484 -130.22876953 296.88855469 -131.21191406 296.13085938 C-135.26741633 293.03134766 -139.37898363 290.01154553 -143.5 287 C-151.12805516 281.41428994 -158.65646685 275.70722039 -166.1640625 269.9609375 C-172.66461486 264.9944388 -179.23038624 260.12508903 -185.83154297 255.29345703 C-191.82247709 250.89711548 -197.72992206 246.39878023 -203.625 241.875 C-210.25161385 236.79762414 -216.93198496 231.81794734 -223.75 227 C-224.4713916 226.48937012 -225.1927832 225.97874023 -225.93603516 225.45263672 C-228.7341447 223.08392934 -228.7341447 223.08392934 -232 222 Z M-264 250 C-263 252 -263 252 -263 252 Z M-265 252 C-271.57306466 260.69632266 -278.07415373 269.43021674 -284.3828125 278.3203125 C-287.33569091 282.48067079 -290.32330768 286.6156898 -293.3125 290.75 C-294.13089355 291.88236084 -294.13089355 291.88236084 -294.96582031 293.03759766 C-297.2055595 296.13610035 -299.44606465 299.23404886 -301.68652344 302.33203125 C-307.14150729 309.87582066 -312.59627197 317.41937297 -318 325 C-323.40798119 332.58659358 -328.86727127 340.13590141 -334.32666016 347.68554688 C-337.05263137 351.45593017 -339.77624549 355.22801519 -342.5 359 C-345.7839396 363.54775578 -349.06845045 368.09509374 -352.35546875 372.640625 C-357.25345334 379.41540742 -362.14744088 386.19258102 -367 393 C-372.40798119 400.58659358 -377.86727127 408.13590141 -383.32666016 415.68554688 C-386.05263137 419.45593017 -388.77624549 423.22801519 -391.5 427 C-394.7839396 431.54775578 -398.06845045 436.09509374 -401.35546875 440.640625 C-406.25345334 447.41540742 -411.14744088 454.19258102 -416 461 C-421.40798119 468.58659358 -426.86727127 476.13590141 -432.32666016 483.68554688 C-435.05263137 487.45593017 -437.77624549 491.22801519 -440.5 495 C-443.7839396 499.54775578 -447.06845045 504.09509374 -450.35546875 508.640625 C-456.11536718 516.6074616 -461.86340823 524.58215323 -467.56640625 532.58984375 C-469.31634917 535.04609326 -471.07584881 537.49522972 -472.83984375 539.94140625 C-473.30559814 540.58883789 -473.77135254 541.23626953 -474.2512207 541.90332031 C-475.1502375 543.15270921 -476.05104745 544.40081024 -476.95385742 545.64746094 C-479.07031086 548.09656894 -479.07031086 548.09656894 -480 551 C-472.0537589 551.19432252 -464.11151484 551.31208581 -456.16310883 551.33421898 C-452.47123249 551.34686143 -448.78344112 551.38508861 -445.09277344 551.48339844 C-430.10274525 552.50278276 -430.10274525 552.50278276 -416.04827881 548.93283081 C-412.9985393 546.00884752 -411.92533736 542.27822131 -410.78674316 538.34545898 C-409.21137628 533.64893466 -406.64562832 529.37871089 -404.3203125 525.01953125 C-403.29309874 523.01235647 -402.27103753 521.0025372 -401.25390625 518.99023438 C-400.73844238 517.97276123 -400.22297852 516.95528809 -399.69189453 515.90698242 C-398.91628174 514.37521362 -398.91628174 514.37521362 -398.125 512.8125 C-396.06698377 508.75555398 -394.00689099 504.69966817 -391.9453125 500.64453125 C-391.44139984 499.65299042 -390.93748718 498.66144958 -390.41830444 497.63986206 C-386.85809979 490.648604 -383.23199482 483.6947371 -379.56445312 476.7592926 C-375.73269917 469.5107529 -371.97954094 462.22312612 -368.240448 454.92645264 C-362.84098483 444.39106607 -357.42834065 433.86312259 -351.9375 423.375 C-347.12772083 414.18657032 -342.37030023 404.97183265 -337.625 395.75 C-331.8244213 384.47774387 -326.00832088 373.21388636 -320.16845703 361.96191406 C-315.93848706 353.81163163 -311.71720366 345.65689196 -307.5 337.5 C-302.10262042 327.06096696 -296.69769066 316.62588415 -291.28491211 306.19482422 C-288.1955488 300.23979355 -285.11161951 294.28201427 -282.03515625 288.3203125 C-281.36524988 287.02277845 -280.69532809 285.72525237 -280.02539062 284.42773438 C-278.76114871 281.97913993 -277.49832316 279.52983319 -276.23632812 277.08007812 C-275.65431641 275.95279297 -275.07230469 274.82550781 -274.47265625 273.6640625 C-273.62598389 272.0229248 -273.62598389 272.0229248 -272.76220703 270.34863281 C-271.52186494 267.99167352 -270.26374022 265.65706064 -268.96826172 263.33105469 C-268.47331459 262.43645035 -268.47331459 262.43645035 -267.96836853 261.52377319 C-267.04725153 259.8655342 -266.11655255 258.21262837 -265.18530273 256.56005859 C-264.59857788 255.29282959 -264.59857788 255.29282959 -264 254 C-264.33 253.34 -264.66 252.68 -265 252 Z M230 420 C231 422 231 422 231 422 Z M231 423 C232 425 232 425 232 425 Z M-324 486 C-325.36335558 487.43030607 -326.68948853 488.89612421 -328 490.375 C-328.8146875 491.29023438 -329.629375 492.20546875 -330.46875 493.1484375 C-331.72171875 494.55996094 -331.72171875 494.55996094 -333 496 C-334.49858174 497.66794201 -335.99854013 499.33464838 -337.5 501 C-339.72829114 503.47502234 -341.9557884 505.95071754 -344.1796875 508.4296875 C-348.30097768 513.0203061 -352.44873788 517.58447107 -356.625 522.125 C-360.17449893 525.98494366 -363.67186168 529.88132625 -367.09765625 533.8515625 C-368.66538645 535.62209968 -370.25681402 537.35825579 -371.87109375 539.0859375 C-372.6290625 539.89998047 -372.6290625 539.89998047 -373.40234375 540.73046875 C-374.41245176 541.81254375 -375.42667809 542.89079141 -376.4453125 543.96484375 C-379.16569043 546.5488564 -379.16569043 546.5488564 -380 550 C-364.49 550 -348.98 550 -333 550 C-331.69427661 542.40115618 -330.38934854 534.80225104 -329.09207153 527.20197296 C-328.48769296 523.66251294 -327.881858 520.12331654 -327.27246094 516.5847168 C-326.68528327 513.17479976 -326.10216376 509.76421115 -325.52182007 506.35312462 C-325.19223285 504.42225835 -324.85847563 502.49210537 -324.5246582 500.56196594 C-324.32445068 499.38111923 -324.12424316 498.20027252 -323.91796875 496.98364258 C-323.74031982 495.94661697 -323.5626709 494.90959137 -323.37963867 493.84114075 C-323.0247053 491.18488958 -322.92780093 488.67541708 -323 486 C-323.33 486 -323.66 486 -324 486 Z " fill="#FFDC00" transform="translate(550,6)"/>
<path d="M0 0 C1.32 0 2.64 0 4 0 C12.93476793 17.28303573 21.83427758 34.58018577 30.5 52 C34.64701744 60.33608955 38.81282465 68.6551489 43.1875 76.875 C53.98732291 97.21368372 63.84665256 117.87765856 73 139 C75.25621054 136.18870346 76.78223781 133.5111328 78.17651367 130.19262695 C88.93034939 105.19710726 101.32246463 81.00251473 113.54160106 56.70071995 C116.65683237 50.50441042 119.76481518 44.30447416 122.87236083 38.10430753 C129.24050656 25.39898454 135.61721919 12.6979766 142 0 C143.32 0 144.64 0 146 0 C152.15142477 27.44333261 158.11507318 54.92585813 164.03325653 82.42032623 C164.7584014 85.78902919 165.48380625 89.15767607 166.20928955 92.52630615 C168.14440337 101.5117522 170.07940991 110.49722117 172.01296997 119.48300171 C174.39352479 130.54539525 176.77788053 141.60694158 179.17211914 152.66638184 C180.32173823 157.97679127 181.46781899 163.28796185 182.61340332 168.59924316 C183.11712195 170.93117217 183.62222647 173.26280228 184.12878418 175.59411621 C184.80570859 178.71039549 185.477745 181.82768711 186.1484375 184.9453125 C186.34104156 185.82561127 186.53364563 186.70591003 186.73208618 187.61288452 C186.90219208 188.40852814 187.07229797 189.20417175 187.24755859 190.02392578 C187.3943808 190.70222443 187.541203 191.38052307 187.69247437 192.07937622 C188 194 188 194 188 198 C178.1 198 168.2 198 158 198 C154.51566828 185.48407918 151.73787521 172.87613564 149.05078125 160.16796875 C148.58848091 157.99692653 148.12576089 155.82597365 147.66264343 153.65510559 C146.45486157 147.98991979 145.25115388 142.32387773 144.04882812 136.65753174 C142.11496652 127.5439845 140.17756608 118.43119751 138.2349453 109.31951332 C137.55841676 106.1413386 136.88533902 102.96244608 136.21247864 99.78349304 C135.80105985 97.85066668 135.38950245 95.91786981 134.9777832 93.98510742 C134.79129715 93.09949127 134.6048111 92.21387512 134.41267395 91.30142212 C133.56156207 87.03471002 133.56156207 87.03471002 132 83 C131.76104004 83.63462158 131.52208008 84.26924316 131.27587891 84.9230957 C123.58926982 105.08747853 114.08741437 124.01533192 104.01617432 143.07299805 C102.05368889 146.79451826 100.11602366 150.52895277 98.17504883 154.26171875 C96.77458479 156.95275946 95.36833959 159.64070755 93.9609375 162.328125 C91.70333568 166.64444838 89.4620367 170.96906168 87.2265625 175.296875 C86.57975415 176.54817788 85.93294427 177.79947997 85.28613281 179.05078125 C84.33826335 180.88471567 83.39099489 182.71894726 82.44567871 184.55419922 C81.57729945 186.2400491 80.70666595 187.92473725 79.8359375 189.609375 C79.33626465 190.57842773 78.8365918 191.54748047 78.32177734 192.54589844 C77 195 77 195 75 198 C73.19384766 197.84716797 73.19384766 197.84716797 71 197 C69.41943359 194.61767578 69.41943359 194.61767578 67.8984375 191.4453125 C67.03798828 189.68380859 67.03798828 189.68380859 66.16015625 187.88671875 C65.56443362 186.63313093 64.96938068 185.37922465 64.375 184.125 C63.21859794 181.73053652 62.06017871 179.33717714 60.8984375 176.9453125 C60.59645447 176.32075165 60.29447144 175.6961908 59.9833374 175.05270386 C56.67729478 168.25491813 53.1293296 161.58822492 49.59228516 154.90869141 C45.32683551 146.84941679 41.16253813 138.73777449 37 130.625 C36.56656281 129.7805835 36.13312561 128.93616699 35.68655396 128.06616211 C28.07651604 113.22643919 20.4922405 98.37103671 14 83 C13.67 83 13.34 83 13 83 C12.88753968 83.56837711 12.77507936 84.13675423 12.65921116 84.72235489 C9.92277967 98.55198339 7.18524453 112.38139303 4.44648075 126.21055984 C3.12206277 132.89824129 1.79801848 139.58599631 0.47485352 146.27392578 C-0.80156296 152.72555981 -2.07902031 159.17698717 -3.35711861 165.62828827 C-3.84508458 168.09223322 -4.33269901 170.55624781 -4.81995964 173.02033234 C-5.501363 176.46588719 -6.18400462 179.91119451 -6.86694336 183.35644531 C-7.06906433 184.37999619 -7.2711853 185.40354706 -7.47943115 186.45811462 C-7.66591721 187.39758438 -7.85240326 188.33705414 -8.04454041 189.30499268 C-8.28651106 190.52729017 -8.28651106 190.52729017 -8.53337002 191.77428055 C-8.97084982 193.86096023 -9.48290286 195.93161144 -10 198 C-20.23 198 -30.46 198 -41 198 C-38.75000042 183.37500271 -38.75000042 183.37500271 -37.58502197 177.74743652 C-37.32169067 176.46728165 -37.05835938 175.18712677 -36.78704834 173.86817932 C-36.50164875 172.49739313 -36.21618523 171.12662025 -35.93066406 169.75585938 C-35.62455517 168.27397893 -35.31873704 166.7920384 -35.01318359 165.31004333 C-34.18941614 161.31871193 -33.36162648 157.32822462 -32.53307056 153.3378849 C-31.65798955 149.11991444 -30.78670004 144.90116081 -29.91497803 140.68249512 C-28.26028103 132.6775037 -26.60224008 124.67320881 -24.94297004 116.66916418 C-23.0775619 107.66994853 -21.21584167 98.66997134 -19.35446596 89.66992092 C-17.07345141 78.64111885 -14.79174328 67.61246066 -12.50738525 56.58435059 C-12.34617479 55.80596754 -12.18496432 55.02758449 -12.01886868 54.22561407 C-11.23466217 50.4395922 -10.44988461 46.65369037 -9.66391373 42.86803436 C-8.32239897 36.40397683 -6.9847668 29.93925688 -5.66885495 23.46993113 C-5.11021537 20.72406083 -4.54905174 17.97870889 -3.98778486 15.2333746 C-3.60190963 13.33975623 -3.2200966 11.44531151 -2.83838272 9.55084991 C-2.60987499 8.43381432 -2.38136726 7.31677872 -2.14593506 6.16589355 C-1.94763973 5.18710991 -1.74934441 4.20832626 -1.54504013 3.19988251 C-1 1 -1 1 0 0 Z " fill="#fff"  transform="translate(1144,271)"/>
<path d="M0 0 C19.90847892 20.30551411 28.17988466 45.41328502 28.0546875 73.546875 C28.05145477 74.53666351 28.05145477 74.53666351 28.04815674 75.54644775 C27.89731521 104.3536918 18.36143476 128.39602936 -1.4453125 149.359375 C-20.8429209 168.16013392 -46.97955168 176.20213074 -73.60083008 176.09936523 C-99.95824734 175.56531145 -123.65285778 165.43870654 -142.9453125 147.546875 C-164.08775698 125.14532712 -170.98362167 97.19405644 -170.50390625 67.19140625 C-169.70140448 40.03011517 -158.82147775 16.82144223 -140.01171875 -2.51171875 C-101.79388043 -38.4855739 -36.92591776 -36.07483251 0 0 Z M-120.66015625 21.515625 C-136.27460793 41.26102147 -139.3282679 64.6564347 -137.03955078 89.13085938 C-134.57234749 106.83922182 -125.18358926 123.60783115 -111.2578125 134.796875 C-96.82703747 145.20372486 -78.92296453 149.99112734 -61.22900391 147.51269531 C-43.09083071 144.23243417 -28.39221719 135.36205805 -17.140625 120.6484375 C-4.49101946 101.49032123 -1.69957644 77.15559778 -5.97265625 54.859375 C-8.89189247 41.1724642 -14.68853316 29.14960412 -24.2578125 18.796875 C-24.82628906 18.17425781 -25.39476562 17.55164063 -25.98046875 16.91015625 C-38.88347724 4.29073037 -56.78657125 0.29751843 -74.18408203 0.44702148 C-91.9708647 0.89876378 -108.74061799 8.02619633 -120.66015625 21.515625 Z " fill="#fff"  transform="translate(1348.2578125,69.203125)"/>
<path d="M0 0 C101.792 0 101.792 0 127 23 C127.89203125 23.78890625 128.7840625 24.5778125 129.703125 25.390625 C147.86209721 42.35884493 154.88804894 66.73924958 156 91 C156.52733618 119.49767765 149.52072394 147.45621922 130 169 C112.7510178 186.75281845 90.90238451 194.01220194 67 197 C44.89 197 22.78 197 0 197 C0 131.99 0 66.98 0 0 Z M31 27 C31 74.19 31 121.38 31 170 C67.61232565 170.79666768 67.61232565 170.79666768 99 156 C99.88751953 155.39478516 99.88751953 155.39478516 100.79296875 154.77734375 C114.05050223 144.85694684 120.20649887 126.29848331 122.49609375 110.59765625 C125.12213914 89.18635499 122.41139881 66.56172939 109 49 C108.39285156 48.1853125 107.78570313 47.370625 107.16015625 46.53125 C96.22473127 33.71722579 82.01973789 30.20394758 66 27 C54.45 27 42.9 27 31 27 Z " fill="#fff" transform="translate(1517,45)"/>
<path d="M0 0 C0.69407959 -0.00067474 1.38815918 -0.00134949 2.10327148 -0.00204468 C21.48672941 0.02790262 42.90210509 2.51565309 59.125 14.25 C60.42052086 18.13656258 59.53476025 19.14387992 57.81640625 22.79296875 C57.31689453 23.86611328 56.81738281 24.93925781 56.30273438 26.04492188 C55.76970703 27.16447266 55.23667969 28.28402344 54.6875 29.4375 C54.15833984 30.56865234 53.62917969 31.69980469 53.08398438 32.86523438 C51.77299468 35.66437453 50.45304604 38.45892204 49.125 41.25 C45.63179017 40.4523853 42.90971092 39.14720659 39.75 37.4375 C19.19690813 26.98507186 -6.21639029 26.24249309 -27.96875 33.24609375 C-43.5270493 39.04035728 -55.02861817 50.20989877 -62.13964844 64.98291016 C-71.18236461 84.77580402 -71.93571342 107.7338722 -64.80859375 128.33203125 C-57.71742169 146.56313037 -47.24509941 159.83965863 -29.5625 168.5625 C-11.45653715 176.39845326 9.12121901 176.28384183 27.72265625 170.04296875 C31.5307142 168.51141689 35.03467664 167.07113162 38.32421875 164.59375 C40.125 163.25 40.125 163.25 42.125 163.25 C42.125 150.71 42.125 138.17 42.125 125.25 C28.925 125.25 15.725 125.25 2.125 125.25 C2.125 116.01 2.125 106.77 2.125 97.25 C25.555 97.25 48.985 97.25 73.125 97.25 C73.48597928 116.35516285 73.48597928 116.35516285 73.56445312 124.53710938 C73.61813343 130.10748021 73.6814348 135.67651212 73.80395508 141.24584961 C73.90218248 145.7393509 73.95564695 150.23141578 73.97889519 154.72590828 C73.99544837 156.43521797 74.02777573 158.14445424 74.07657051 159.85314751 C74.44216039 173.19326125 74.44216039 173.19326125 71.19291687 178.26693726 C68.94984614 180.55526221 66.75306113 182.42532903 64.125 184.25 C63.44828751 184.74200897 62.77157501 185.23401794 62.07435608 185.74093628 C60.36641725 186.93608115 58.62880461 187.97812845 56.8125 189 C56.16643799 189.37213623 55.52037598 189.74427246 54.85473633 190.12768555 C29.18482726 204.62933229 -3.74742504 207.40418608 -32.07373047 199.64794922 C-47.21995952 195.16751142 -60.08789271 187.83587343 -71.875 177.25 C-72.93460938 176.31414062 -72.93460938 176.31414062 -74.015625 175.359375 C-91.72452644 158.76599491 -101.60829784 133.850895 -103.07983398 109.91870117 C-103.1767557 106.56787332 -103.20390257 103.22715373 -103.1875 99.875 C-103.18331055 98.69542725 -103.17912109 97.51585449 -103.17480469 96.30053711 C-103.06213565 87.59445677 -102.30446286 79.64840177 -99.875 71.25 C-99.5965625 70.23679687 -99.318125 69.22359375 -99.03125 68.1796875 C-91.7388319 44.10213464 -75.66444789 24.54010731 -53.875 12.25 C-36.88865012 3.23597753 -19.13588635 0.01665217 0 0 Z " fill="#fff"  transform="translate(1080.875,41.75)"/>
<path d="M0 0 C5.63305322 1.12661064 5.63305322 1.12661064 8.375 4.0625 C9.2721875 5.01382813 9.2721875 5.01382813 10.1875 5.984375 C12.52406589 8.58279741 14.841574 11.19453551 17.125 13.83984375 C20.68974364 17.94672549 24.35607148 21.96345965 28 26 C30.24796977 28.49687992 32.49508007 30.99453151 34.7421875 33.4921875 C36.26708244 35.18592894 37.79315402 36.87861169 39.3203125 38.5703125 C42.71872932 42.33737115 46.1081661 46.10915586 49.4375 49.9375 C53.09178862 54.13442081 56.84744973 58.2365276 60.59765625 62.34765625 C62.56941844 64.52460996 64.51365337 66.71838674 66.4375 68.9375 C69.3988351 72.3468858 72.44152486 75.6779431 75.5 79 C79.14414329 82.95862186 82.73913717 86.9517676 86.265625 91.015625 C89.79500714 95.05374691 93.40634226 99.01914681 97 103 C99.24304909 105.49141439 101.48524596 107.98358937 103.7265625 110.4765625 C105.3012727 112.22443671 106.8796501 113.96901138 108.4609375 115.7109375 C109.25757813 116.59007812 110.05421875 117.46921875 110.875 118.375 C111.59429688 119.16648437 112.31359375 119.95796875 113.0546875 120.7734375 C114.79856385 122.76944055 116.40970196 124.87960262 118 127 C118 85.42 118 43.84 118 1 C128.23 1 138.46 1 149 1 C149 66.01 149 131.02 149 198 C143 198 143 198 141.23657227 196.84179688 C140.76791748 196.30619141 140.2992627 195.77058594 139.81640625 195.21875 C139.28515137 194.62819824 138.75389648 194.03764648 138.20654297 193.42919922 C137.66400879 192.79256348 137.12147461 192.15592773 136.5625 191.5 C135.98902832 190.85434082 135.41555664 190.20868164 134.82470703 189.54345703 C133.20047715 187.70887531 131.59779248 185.85760047 130 184 C129.33613281 183.24460938 128.67226562 182.48921875 127.98828125 181.7109375 C126.91914751 180.49424777 125.85526072 179.27292579 124.796875 178.046875 C122.44635047 175.36932097 120.03685396 172.74715185 117.625 170.125 C112.71204053 164.78366259 107.84620792 159.40204539 103 154 C101.50028872 152.33307353 100.00028679 150.66640851 98.5 149 C96.27170886 146.52497766 94.0442116 144.04928246 91.8203125 141.5703125 C87.69902232 136.9796939 83.55126212 132.41552893 79.375 127.875 C75.8149821 124.00361736 72.31294132 120.09052085 68.8671875 116.1171875 C66.02205329 112.89111482 63.10367121 109.7326456 60.19189453 106.56689453 C55.75775502 101.74414163 51.37571266 96.87579411 47 92 C46.236875 91.154375 45.47375 90.30875 44.6875 89.4375 C43.924375 88.591875 43.16125 87.74625 42.375 86.875 C41.70210937 86.12992187 41.02921875 85.38484375 40.3359375 84.6171875 C37.19784229 81.10126143 34.10332324 77.54665513 31 74 C31 114.92 31 155.84 31 198 C20.77 198 10.54 198 0 198 C0 132.66 0 67.32 0 0 Z " fill="#fff" transform="translate(1827,44)"/>
<path d="M0 0 C1.32 0 2.64 0 4 0 C10.8408744 13.56464138 17.5644184 27.17538619 24.08984375 40.89453125 C27.34424293 47.73495233 30.64044719 54.55507651 33.9375 61.375 C40.80461584 75.58490939 47.63576147 89.81193623 54.45898438 104.04296875 C60.01283503 115.6252314 65.57697848 127.20238816 71.1652832 138.76806641 C77.06137397 150.97096882 82.94112234 163.18139755 88.76708984 175.41796875 C89.99037256 177.97983767 91.22293009 180.53707808 92.45703125 183.09375 C93.20072951 184.64573335 93.94423121 186.19781092 94.6875 187.75 C95.02700684 188.44770508 95.36651367 189.14541016 95.71630859 189.86425781 C97.09996193 192.76956281 98 194.73866668 98 198 C86.45 198 74.9 198 63 198 C57.13185569 185.42540506 51.53289851 172.72566657 46 160 C16.63 159.67 -12.74 159.34 -43 159 C-43.66 160.98 -44.32 162.96 -45 165 C-46.05095632 167.53042299 -47.1201134 170.04326093 -48.22265625 172.55078125 C-48.52819931 173.25019333 -48.83374237 173.94960541 -49.14854431 174.67021179 C-49.79021354 176.13722851 -50.43318332 177.60367699 -51.07739258 179.06958008 C-52.06643091 181.32145001 -53.05007698 183.57562174 -54.03320312 185.83007812 C-54.65853509 187.25795228 -55.28417511 188.68569157 -55.91015625 190.11328125 C-56.35235252 191.12724724 -56.35235252 191.12724724 -56.80348206 192.16169739 C-58.88489628 196.88489628 -58.88489628 196.88489628 -60 198 C-62.52094076 198.08847743 -65.01430893 198.11527301 -67.53515625 198.09765625 C-68.66503212 198.09553383 -68.66503212 198.09553383 -69.81773376 198.09336853 C-72.2326956 198.08775376 -74.64756601 198.07519883 -77.0625 198.0625 C-78.69596221 198.0574869 -80.32942586 198.05292366 -81.96289062 198.04882812 C-85.97529585 198.03777954 -89.98763241 198.02050506 -94 198 C-92.12460402 191.9200228 -89.85121649 186.26130605 -87.0078125 180.57421875 C-86.6259227 179.79795639 -86.2440329 179.02169403 -85.85057068 178.22190857 C-85.03571108 176.56631803 -84.21844955 174.91190781 -83.3989563 173.25860596 C-81.22320827 168.86749872 -79.0666535 164.46699195 -76.91015625 160.06640625 C-76.48131638 159.1919989 -76.0524765 158.31759155 -75.61064148 157.41668701 C-72.15978655 150.36437776 -68.8307612 143.26396935 -65.5625 136.125 C-59.80898423 123.58151021 -53.75344581 111.19482085 -47.67849731 98.80474854 C-42.50675541 88.25194174 -37.39829575 77.68309536 -32.5 67 C-27.03165633 55.07895641 -21.31966448 43.28370662 -15.5625 31.5 C-15.13098633 30.61650879 -14.69947266 29.73301758 -14.25488281 28.82275391 C-9.54846513 19.19239504 -4.81968483 9.57428764 0 0 Z M1 60 C-4.20950406 71.57032346 -9.41691455 83.14158687 -14.62207031 94.71386719 C-16.11829739 98.04027236 -17.61499352 101.36646549 -19.11230469 104.69238281 C-20.65126498 108.11095306 -22.18886485 111.5301314 -23.72525024 114.94985962 C-24.5498295 116.78431177 -25.3758557 118.61811331 -26.2019043 120.4519043 C-26.69343994 121.54672119 -27.18497559 122.64153809 -27.69140625 123.76953125 C-28.11623291 124.71417236 -28.54105957 125.65881348 -28.97875977 126.63208008 C-30.07280891 129.07621888 -30.07280891 129.07621888 -31 132 C-9.55 132 11.9 132 34 132 C32.77738004 128.33214012 31.63855334 125.00142725 30.07983398 121.52124023 C29.70861923 120.68854111 29.33740448 119.85584198 28.9549408 118.99790955 C28.55602127 118.11043533 28.15710175 117.22296112 27.74609375 116.30859375 C27.32634781 115.36806656 26.90660187 114.42753937 26.47413635 113.45851135 C25.13124436 110.45031343 23.78466281 107.44378745 22.4375 104.4375 C20.68418168 100.52042968 18.93278007 96.60251101 17.18359375 92.68359375 C16.53951065 91.24069473 16.53951065 91.24069473 15.88241577 89.76864624 C11.48509363 79.88995894 7.22573033 69.95309872 3 60 C2.34 60 1.68 60 1 60 Z " fill="#fff"  transform="translate(1680,271)"/>
<path d="M0 0 C0.80991898 0.00359528 1.61983795 0.00719055 2.45429993 0.01089478 C3.30300659 0.01074875 4.15171326 0.01060272 5.02613831 0.01045227 C7.84523532 0.01115168 10.66426712 0.01894539 13.48335266 0.02676392 C15.43248458 0.028628 17.38161696 0.03005195 19.33074951 0.03105164 C24.47151473 0.03487761 29.61225188 0.04470858 34.75300598 0.05575562 C39.99449789 0.06596802 45.23599431 0.07054889 50.47749329 0.07559204 C60.76982533 0.08633078 71.06212915 0.10392822 81.35444641 0.12442017 C81.35444641 9.36442017 81.35444641 18.60442017 81.35444641 28.12442017 C62.54444641 28.12442017 43.73444641 28.12442017 24.35444641 28.12442017 C24.35444641 45.61442017 24.35444641 63.10442017 24.35444641 81.12442017 C39.53444641 81.12442017 54.71444641 81.12442017 70.35444641 81.12442017 C70.35444641 90.36442017 70.35444641 99.60442017 70.35444641 109.12442017 C55.17444641 109.12442017 39.99444641 109.12442017 24.35444641 109.12442017 C24.35444641 129.58442017 24.35444641 150.04442017 24.35444641 171.12442017 C45.80444641 171.12442017 67.25444641 171.12442017 89.35444641 171.12442017 C89.35444641 180.03442017 89.35444641 188.94442017 89.35444641 198.12442017 C57.67444641 198.12442017 25.99444641 198.12442017 -6.64555359 198.12442017 C-6.68585662 148.76215948 -6.68585662 148.76215948 -6.69438171 128.14590454 C-6.7003254 113.88637942 -6.70732899 99.62686018 -6.72099304 85.36734009 C-6.73093785 74.98422696 -6.73740653 64.60111859 -6.73964208 54.21800083 C-6.74094954 48.71657691 -6.74403757 43.2151666 -6.75128365 37.71374702 C-6.75804066 32.54203032 -6.7601712 27.37033291 -6.75866127 22.19861221 C-6.75893774 20.29460101 -6.76094474 18.3905892 -6.76475906 16.4865818 C-6.76969134 13.89888251 -6.76855361 11.31125732 -6.76580811 8.72355652 C-6.76872095 7.95995255 -6.77163379 7.19634857 -6.7746349 6.40960509 C-6.75624421 0.05273331 -6.32093098 0.01184768 0 0 Z " fill="#fff" transform="translate(1363.6455535888672,270.8755798339844)"/>
<path d="M0 0 C28.71 0 57.42 0 87 0 C87 8.91 87 17.82 87 27 C68.52 27 50.04 27 31 27 C31 44.49 31 61.98 31 80 C45.76454451 79.96039293 45.76454451 79.96039293 60.52905273 79.90991211 C62.37223249 79.90699306 64.21541288 79.90444448 66.05859375 79.90234375 C67.50836609 79.8946698 67.50836609 79.8946698 68.98742676 79.88684082 C69.90092896 79.88671997 70.81443115 79.88659912 71.75561523 79.88647461 C72.55281479 79.884254 73.35001434 79.88203339 74.17137146 79.87974548 C76 80 76 80 77 81 C77.09971786 82.91458282 77.13080589 84.83282317 77.1328125 86.75 C77.13410156 87.9153125 77.13539062 89.080625 77.13671875 90.28125 C77.13285156 91.5084375 77.12898438 92.735625 77.125 94 C77.12886719 95.2271875 77.13273437 96.454375 77.13671875 97.71875 C77.13542969 98.8840625 77.13414063 100.049375 77.1328125 101.25 C77.13168457 102.32765625 77.13055664 103.4053125 77.12939453 104.515625 C77 107 77 107 76 108 C74.58774954 108.0928726 73.17091066 108.11746772 71.75561523 108.11352539 C70.84211304 108.11340454 69.92861084 108.11328369 68.98742676 108.11315918 C67.53765442 108.10548523 67.53765442 108.10548523 66.05859375 108.09765625 C65.17498169 108.09664917 64.29136963 108.09564209 63.38098145 108.09460449 C60.06647451 108.08935531 56.75198601 108.07539417 53.4375 108.0625 C46.033125 108.041875 38.62875 108.02125 31 108 C31 128.46 31 148.92 31 170 C52.45 170 73.9 170 96 170 C96 178.91 96 187.82 96 197 C64.32 197 32.64 197 0 197 C0 131.99 0 66.98 0 0 Z " fill="#fff" transform="translate(1701,45)"/>
<path d="M0 0 C43.56 0 87.12 0 132 0 C132 9.24 132 18.48 132 28 C115.17 28 98.34 28 81 28 C81 84.1 81 140.2 81 198 C70.77 198 60.54 198 50 198 C50 141.9 50 85.8 50 28 C33.5 28 17 28 0 28 C0 18.76 0 9.52 0 0 Z " fill="#fff" transform="translate(1468,271)"/>
<path d="M0 0 C10.23 0 20.46 0 31 0 C31 56.1 31 112.2 31 170 C49.81 170 68.62 170 88 170 C88 179.24 88 188.48 88 198 C58.96 198 29.92 198 0 198 C0 132.66 0 67.32 0 0 Z " fill="#fff"  transform="translate(1793,271)"/>
<path d="M0 0 C10.23 0 20.46 0 31 0 C31 56.1 31 112.2 31 170 C49.48 170 67.96 170 87 170 C87 178.91 87 187.82 87 197 C58.29 197 29.58 197 0 197 C0 131.99 0 66.98 0 0 Z " fill="#fff"  transform="translate(1408,45)"/>
<path d="M0 0 C5.94 0 11.88 0 18 0 C22.1329037 8.90801299 25.55791498 18.08235953 29.0625 27.25 C29.7278452 28.98460764 30.39337429 30.71914475 31.05908203 32.45361328 C34.19096491 40.62036367 37.30603164 48.79330539 40.39453125 56.9765625 C40.65212723 57.65851685 40.90972321 58.34047119 41.17512512 59.04309082 C42.37483978 62.22025417 43.57106277 65.39861633 44.76196289 68.57910156 C45.17824951 69.68479492 45.59453613 70.79048828 46.0234375 71.9296875 C46.38356934 72.89116699 46.74370117 73.85264648 47.11474609 74.84326172 C47.81474794 76.9432965 47.81474794 76.9432965 49 78 C49.41137207 76.9162207 49.82274414 75.83244141 50.24658203 74.71582031 C59.71974593 49.76660307 69.28780448 24.85715042 79 0 C84.94 0 90.88 0 97 0 C97 32.34 97 64.68 97 98 C93.04 98 89.08 98 85 98 C85 71.27 85 44.54 85 17 C80.66875 28.1684375 80.66875 28.1684375 76.25 39.5625 C74.84113525 43.19390991 74.84113525 43.19390991 73.40380859 46.89868164 C69.6264727 56.63568139 65.85165105 66.37356263 62.1015625 76.12109375 C61.54137636 77.57545302 60.98115657 79.02979932 60.42089844 80.48413086 C59.40830411 83.11277569 58.39906875 85.74267757 57.39160156 88.37329102 C56.95041992 89.51854248 56.50923828 90.66379395 56.0546875 91.84375 C55.67812012 92.82537109 55.30155273 93.80699219 54.91357422 94.81835938 C54 97 54 97 53 98 C51.31391034 98.07205511 49.62499341 98.08386068 47.9375 98.0625 C46.55884766 98.04896484 46.55884766 98.04896484 45.15234375 98.03515625 C44.08693359 98.01775391 44.08693359 98.01775391 43 98 C32.60214152 71.02433847 22.28057349 44.02062235 12 17 C12 43.73 12 70.46 12 98 C8.04 98 4.08 98 0 98 C0 65.66 0 33.32 0 0 Z " fill="#FFDC00" transform="translate(1393,485)"/>
<path d="M0 0 C6.57355969 0.64386186 13.14291948 0.89115979 19.7421875 1.1171875 C21.52786133 1.18196289 21.52786133 1.18196289 23.34960938 1.24804688 C26.25121784 1.35292429 29.15289385 1.45508946 32.0546875 1.5546875 C32.0546875 4.1946875 32.0546875 6.8346875 32.0546875 9.5546875 C28.0946875 10.2146875 24.1346875 10.8746875 20.0546875 11.5546875 C20.78365234 12.81152344 20.78365234 12.81152344 21.52734375 14.09375 C24.37480497 20.54605342 24.09774161 28.28406974 22.43359375 35.09765625 C20.1247585 40.40284657 16.12472994 43.90406271 11.0546875 46.5546875 C5.24359561 48.67581608 -0.20248188 49.72442756 -6.3828125 49.4296875 C-10.1834631 49.30116308 -10.75411895 49.42085202 -14.0703125 51.7421875 C-16.06737694 54.73778416 -16.44686792 56.04379956 -15.9453125 59.5546875 C-12.26169972 61.23693768 -9.34336443 61.81163317 -5.3046875 61.86328125 C-4.23347656 61.88841797 -3.16226562 61.91355469 -2.05859375 61.93945312 C0.16791437 61.97436353 2.39448224 62.00566553 4.62109375 62.03320312 C12.52786609 62.22732149 19.60391663 62.77906745 25.9296875 67.8671875 C30.50740357 73.65665195 31.67421101 78.12136451 31.46484375 85.44921875 C30.61741884 91.86543593 27.95673125 97.45702037 22.8046875 101.4921875 C13.90286998 106.99265553 4.05606283 107.75267027 -6.1328125 107.8046875 C-7.12345703 107.8253125 -8.11410156 107.8459375 -9.13476562 107.8671875 C-18.23364318 107.91491932 -26.75031608 106.73139987 -33.5390625 100.21484375 C-37.42816388 95.6235435 -38.51669969 90.68345542 -38.296875 84.828125 C-37.49536977 79.64505787 -35.22863742 75.80510666 -31.5078125 72.1796875 C-29.0386075 70.61385018 -26.70681104 69.501487 -23.9453125 68.5546875 C-24.6053125 67.9359375 -25.2653125 67.3171875 -25.9453125 66.6796875 C-28.75355928 62.2918019 -29.00547411 58.63270799 -27.9453125 53.5546875 C-26.27362747 50.55435106 -24.29161034 48.05461199 -21.9453125 45.5546875 C-23.3065625 44.595625 -23.3065625 44.595625 -24.6953125 43.6171875 C-29.55907435 39.47953227 -31.60626905 34.66703021 -32.29296875 28.36328125 C-32.49808782 20.66685701 -32.27341794 14.21560349 -26.953125 8.36328125 C-18.99789766 0.87679626 -10.73972133 -1.16588589 0 0 Z M-16.6328125 13.8046875 C-19.62858093 17.79904541 -20.16396481 22.26514412 -19.8203125 27.1171875 C-19.1045457 32.05176805 -17.26717329 35.81329191 -13.1953125 38.8671875 C-6.13757542 41.02371827 -0.5592161 40.96579526 6.0546875 37.5546875 C9.96733991 33.64203509 11.20629044 30.25825104 11.3671875 24.8046875 C11.30557149 19.52881663 10.23113455 16.76133359 7.0546875 12.5546875 C3.32418075 9.81298977 0.65782166 9.14445943 -3.9453125 9.1796875 C-4.9559375 9.17195312 -5.9665625 9.16421875 -7.0078125 9.15625 C-10.98266077 9.69539165 -13.46880512 11.46097833 -16.6328125 13.8046875 Z M-23.3203125 78.1796875 C-25.7724047 81.76351457 -26.12968963 85.26023685 -25.9453125 89.5546875 C-24.58984863 93.22241326 -23.40959309 94.27208192 -20.0703125 96.3046875 C-10.15008299 100.2727793 1.19910001 99.35392535 11.0546875 95.5546875 C14.40243967 93.40133061 17.25714624 91.14977002 19.0546875 87.5546875 C19.62081497 82.03613382 19.62081497 82.03613382 17.4921875 77.1796875 C11.2308136 73.00543823 4.32563668 73.21775555 -2.9453125 73.2421875 C-3.904375 73.22607422 -4.8634375 73.20996094 -5.8515625 73.19335938 C-12.81352222 73.18857781 -17.4983429 74.19623462 -23.3203125 78.1796875 Z " fill="#FFDC00" transform="translate(1777.9453125,507.4453125)"/>
<path d="M0 0 C7.972454 5.21275839 11.77194251 12.92624493 13.875 22 C16.30370931 35.29323143 15.47178191 48.3860366 8 60 C2.91957759 66.6134177 -3.83124354 70.40500558 -12 72 C-23.02359401 72.85661049 -32.59450946 71.90872084 -41.375 64.75 C-49.56736654 56.85919297 -53.02097641 47.68669434 -53.35351562 36.43261719 C-53.46295522 24.35944021 -51.85215988 13.5531481 -43.47265625 4.31640625 C-32.37123644 -6.15810985 -13.09402847 -7.87200521 0 0 Z M-35.3125 12.25 C-41.56303722 22.43606065 -42.29686077 34.07697905 -39.7578125 45.57421875 C-37.86177557 51.64349161 -34.39666718 56.57772325 -29 60 C-23.0072497 62.66344458 -17.08083722 62.85609853 -10.875 60.9375 C-5.56448982 58.68392397 -2.50179616 55.02059378 0.03515625 49.91796875 C3.78938002 39.66806478 3.62736783 26.25552495 -0.6640625 16.2421875 C-3.83420714 10.92153538 -8.18795516 7.9402485 -14 6 C-22.47108502 4.91104139 -29.13093949 6.23550869 -35.3125 12.25 Z " fill="#FFDC00" transform="translate(1268,512)"/>
<path d="M0 0 C18.15 0 36.3 0 55 0 C55 3.63 55 7.26 55 11 C41.14 11 27.28 11 13 11 C13 22.22 13 33.44 13 45 C26.2 45 39.4 45 53 45 C53 48.63 53 52.26 53 56 C39.8 56 26.6 56 13 56 C13 69.86 13 83.72 13 98 C8.71 98 4.42 98 0 98 C0 65.66 0 33.32 0 0 Z " fill="#FFDC00" transform="translate(1150,485)"/>
<path d="M0 0 C0.79100098 0.00427002 1.58200195 0.00854004 2.39697266 0.01293945 C10.25340298 0.24097738 15.82178756 2.39318852 21.625 7.75 C26.22033067 15.83778198 26.60088012 23.46436786 26.48046875 32.62890625 C26.47622391 33.85915024 26.47197906 35.08939423 26.46760559 36.35691833 C26.45090766 40.25900816 26.41327075 44.16056812 26.375 48.0625 C26.35823803 50.71939348 26.34625539 53.37628198 26.33398438 56.03320312 C26.30103306 62.52233739 26.24931132 69.01107907 26.1875 75.5 C22.2275 75.5 18.2675 75.5 14.1875 75.5 C14.17291748 73.89560059 14.15833496 72.29120117 14.14331055 70.63818359 C14.08527973 64.67799747 14.0080461 58.71818723 13.92504883 52.75830078 C13.89182219 50.1802379 13.86378327 47.60210267 13.84106445 45.02392578 C13.80747793 41.31511646 13.75515756 37.6069688 13.69921875 33.8984375 C13.69282883 32.74822113 13.6864389 31.59800476 13.67985535 30.41293335 C13.57601926 24.74397451 13.4875879 20.344175 10.1875 15.5 C5.53596332 11.28454488 1.00549051 11.21757738 -5.01953125 11.28125 C-9.87582492 11.66160307 -13.14620789 13.25028091 -17.0625 16.1875 C-23.1459405 24.22633209 -22.94022953 34.59138906 -23.12890625 44.25 C-23.14968735 45.14871826 -23.17046844 46.04743652 -23.19187927 46.97338867 C-23.25673053 49.81552236 -23.31595696 52.65774033 -23.375 55.5 C-23.41824665 57.43881044 -23.46186279 59.37761268 -23.50585938 61.31640625 C-23.61234487 66.04418671 -23.71378947 70.77205107 -23.8125 75.5 C-27.7725 75.5 -31.7325 75.5 -35.8125 75.5 C-35.8125 51.08 -35.8125 26.66 -35.8125 1.5 C-32.5125 1.5 -29.2125 1.5 -25.8125 1.5 C-24.8225 4.14 -23.8325 6.78 -22.8125 9.5 C-21.801875 8.571875 -20.79125 7.64375 -19.75 6.6875 C-13.82806564 1.24898885 -7.77445569 -0.06345485 0 0 Z " fill="#FFDC00" transform="translate(1583.8125,507.5)"/>
<path d="M0 0 C5.48393221 3.77616996 8.05769344 8.50578941 9.60162354 14.9019165 C10.45197134 19.96587618 10.26033756 25.08296285 10.21484375 30.203125 C10.21201385 31.41258789 10.20918396 32.62205078 10.20626831 33.86816406 C10.19512521 37.70908748 10.17003108 41.54977275 10.14453125 45.390625 C10.13449388 48.00390287 10.12536935 50.61718441 10.1171875 53.23046875 C10.09520504 59.61727845 10.06071541 66.00391142 10.01953125 72.390625 C6.05953125 72.390625 2.09953125 72.390625 -1.98046875 72.390625 C-1.98981445 70.82699219 -1.99916016 69.26335937 -2.00878906 67.65234375 C-2.04877551 61.82995516 -2.11455969 56.00809011 -2.18798828 50.18603516 C-2.21614752 47.67015325 -2.23738703 45.1541837 -2.25146484 42.63818359 C-2.27296331 39.01354264 -2.31965245 35.38994983 -2.37109375 31.765625 C-2.37232239 30.64760498 -2.37355103 29.52958496 -2.37481689 28.37768555 C-2.50055243 21.61545142 -3.33959582 17.14095906 -6.98046875 11.390625 C-12.01584888 7.46057222 -17.86808046 7.75771104 -23.98046875 8.390625 C-27.99519538 9.25235501 -31.1096306 10.66100385 -34.29296875 13.328125 C-40.6107507 24.79372927 -39.52671269 38.46213104 -39.66796875 51.140625 C-39.70119878 53.20575008 -39.73569354 55.27085521 -39.77148438 57.3359375 C-39.85573327 62.35405552 -39.92284715 67.37213349 -39.98046875 72.390625 C-43.94046875 72.390625 -47.90046875 72.390625 -51.98046875 72.390625 C-51.98046875 47.970625 -51.98046875 23.550625 -51.98046875 -1.609375 C-48.68046875 -1.609375 -45.38046875 -1.609375 -41.98046875 -1.609375 C-41.65046875 1.360625 -41.32046875 4.330625 -40.98046875 7.390625 C-40.01109375 6.483125 -39.04171875 5.575625 -38.04296875 4.640625 C-27.6681105 -4.02905853 -12.42393231 -6.0108974 0 0 Z " fill="#FFDC00" transform="translate(1717.98046875,510.609375)"/>
<path d="M0 0 C0.73154297 0.01353516 1.46308594 0.02707031 2.21679688 0.04101562 C3.99902422 0.07596126 5.78086573 0.12975195 7.5625 0.1875 C7.44851335 1.81330966 7.32094341 3.43817157 7.1875 5.0625 C7.11789062 5.96742188 7.04828125 6.87234375 6.9765625 7.8046875 C6.5625 10.1875 6.5625 10.1875 4.5625 12.1875 C2.51992815 12.20196581 0.47627303 12.12535379 -1.5625 12 C-6.95228296 11.93456113 -10.43127098 12.32769792 -14.78515625 15.55859375 C-20.10184548 20.79986895 -22.50069059 26.4734106 -22.64282227 33.86425781 C-22.66276749 34.78491028 -22.68271271 35.70556274 -22.70326233 36.65411377 C-22.72833107 38.13243683 -22.72833107 38.13243683 -22.75390625 39.640625 C-22.77468735 40.65598328 -22.79546844 41.67134155 -22.81687927 42.71746826 C-22.88220597 45.95741073 -22.94118137 49.19743348 -23 52.4375 C-23.04320126 54.63542493 -23.08681607 56.83334178 -23.13085938 59.03125 C-23.23787012 64.41658461 -23.33918522 69.8019999 -23.4375 75.1875 C-27.3975 75.1875 -31.3575 75.1875 -35.4375 75.1875 C-35.4375 50.7675 -35.4375 26.3475 -35.4375 1.1875 C-32.1375 1.1875 -28.8375 1.1875 -25.4375 1.1875 C-24.7775 4.4875 -24.1175 7.7875 -23.4375 11.1875 C-22.94121094 10.64480469 -22.44492188 10.10210938 -21.93359375 9.54296875 C-21.25425781 8.82753906 -20.57492187 8.11210938 -19.875 7.375 C-19.21371094 6.66730469 -18.55242187 5.95960938 -17.87109375 5.23046875 C-12.29484658 0.54928533 -6.97081389 -0.24872986 0 0 Z " fill="#FFDC00" transform="translate(1336.4375,507.8125)"/>
<path d="M0 0 C3.96 0 7.92 0 12 0 C12 24.42 12 48.84 12 74 C8.04 74 4.08 74 0 74 C0 49.58 0 25.16 0 0 Z " fill="#FFDB00" transform="translate(1632,509)"/>
<path d="M0 0 C3.96 0 7.92 0 12 0 C12 24.42 12 48.84 12 74 C8.04 74 4.08 74 0 74 C0 49.58 0 25.16 0 0 Z " fill="#FFDB00" transform="translate(1514,509)"/>
<path d="M0 0 C11.22 0 22.44 0 34 0 C34 3.63 34 7.26 34 11 C22.78 11 11.56 11 0 11 C0 7.37 0 3.74 0 0 Z " fill="#143B63" transform="translate(1817,540)"/>
<path d="M0 0 C11.22 0 22.44 0 34 0 C34 3.63 34 7.26 34 11 C22.78 11 11.56 11 0 11 C0 7.37 0 3.74 0 0 Z " fill="#10345A" transform="translate(1099,540)"/>
<path d="M0 0 C2.5290973 0.5659875 3.42018122 1.34378966 4.9375 3.43359375 C5.3359375 5.58984375 5.3359375 5.58984375 5.3125 7.93359375 C5.32023437 8.70703125 5.32796875 9.48046875 5.3359375 10.27734375 C4.84186939 12.95112413 4.11055273 13.83266114 1.9375 15.43359375 C-1.95754791 15.92932712 -4.15743717 16.01376223 -7.5 13.87109375 C-9.65129747 10.51506969 -9.55197291 8.34937704 -9.0625 4.43359375 C-7.19324789 -0.12270828 -4.45442078 -0.0084364 0 0 Z " fill="#FFDC00" transform="translate(1522.0625,481.56640625)"/>
<path d="M0 0 C1.875 0.30859375 1.875 0.30859375 3.875 1.30859375 C5.50647635 4.57154645 5.5043407 7.79418554 4.875 11.30859375 C3.25 13.80859375 3.25 13.80859375 0.875 15.30859375 C-2.76132575 15.91464804 -4.40814769 15.78020711 -7.5 13.74609375 C-9.7335569 10.3957584 -9.61898209 8.26045045 -9.125 4.30859375 C-7.26851774 -0.21658176 -4.46544618 -0.27088185 0 0 Z " fill="#FFDC00" transform="translate(1640.125,481.69140625)"/>
</svg>
